# xmcd CD database file
#
# Track frame offsets:
#	150
#	25707
#	53607
#	66502
#	97067
#	112072
#	139732
#	158040
#	187390
#	211337
#
# Disc length: 3003 seconds
#
# Revision: 0
# Processed by: cddbd v1.5.2PL0 Copyright (c) Steve Scherf et al.
# Submitted via: CDex 1.51
#
DISCID=940bb90a
DTITLE=Krzysztof Barcik - Romantic Journey
DYEAR=1998
DGENRE=Jazz
TTITLE0=Romantic Journey
TTITLE1=Free For You
TTITLE2=Spanish Soul
TTITLE3=Strange People
TTITLE4=Night Visions
TTITLE5=Weekend In Boca Raton
TTITLE6=On The Other Side Of The River
TTITLE7=Old Habits
TTITLE8=Waiting For Eternal Like
TTITLE9=Country Stuff
EXTD=YEAR: 1998
EXTT0=
EXTT1=
EXTT2=
EXTT3=
EXTT4=
EXTT5=
EXTT6=
EXTT7=
EXTT8=
EXTT9=
PLAYORDER=
